<?xml version="1.0" encoding="utf-8"?>
<!-- Generator: Adobe Illustrator 19.1.1, SVG Export Plug-In . SVG Version: 6.00 Build 0)  -->
<svg version="1.1" xmlns="http://www.w3.org/2000/svg" xmlns:xlink="http://www.w3.org/1999/xlink" x="0px" y="0px"
	 viewBox="0 0 132.3 146.5" style="enable-background:new 0 0 132.3 146.5;" xml:space="preserve">
<style type="text/css">
	.st0{fill:#00878F;}
	.st1{fill:#E47128;}
	.st2{fill:#E5AD24;}
	.st3{fill:none;}
	.st4{fill:#FFFFFF;}
	.st5{fill:none;stroke:#E5AD24;stroke-miterlimit:10;}
	.st6{fill:none;stroke:#FFFFFF;stroke-width:4;stroke-miterlimit:10;}
	.st7{fill:#62AEB2;}
	.st8{fill:none;stroke:#E47128;stroke-miterlimit:10;}
	.st9{fill:#8C7965;}
	.st10{fill:#FF0000;}
</style>
<g id="Guides_For_Artboard_5_">
</g>
<g id="Guides_For_Artboard_4_">
</g>
<g id="Guides_For_Artboard_3_">
</g>
<g id="Guides_For_Artboard_2_">
</g>
<g id="Guides_For_Artboard_1_">
</g>
<g id="Guides_For_Artboard">
</g>
<g id="Layer_1">
	<g id="XMLID_195_">
		<g id="XMLID_124_">
			<g id="XMLID_125_">
				<polygon id="XMLID_126_" class="st1" points="0,0 0,97.7 66.2,146.5 132.3,97.7 132.3,0 				"/>
			</g>
		</g>
		<g id="XMLID_102_">
			<g id="XMLID_160_">
				<rect id="XMLID_171_" x="38.7" y="39" class="st4" width="54.8" height="54.8"/>
				<g id="XMLID_166_">
					<polyline id="XMLID_170_" class="st4" points="43.7,26.6 43.7,36.3 53.2,36.3 53.2,26.6 50.8,24.2 50.8,14.1 46.1,14.1 
						46.1,24.2 					"/>
					<polyline id="XMLID_169_" class="st4" points="55.5,26.6 55.5,36.3 65,36.3 65,26.6 62.6,24.2 62.6,14.1 57.9,14.1 57.9,24.2 
											"/>
					<polyline id="XMLID_168_" class="st4" points="67.3,26.6 67.3,36.3 76.8,36.3 76.8,26.6 74.4,24.2 74.4,14.1 69.7,14.1 
						69.7,24.2 					"/>
					<polyline id="XMLID_167_" class="st4" points="79.1,26.6 79.1,36.3 88.6,36.3 88.6,26.6 86.2,24.2 86.2,14.1 81.5,14.1 
						81.5,24.2 					"/>
				</g>
				<g id="XMLID_161_">
					<polyline id="XMLID_165_" class="st4" points="88.6,106.2 88.6,96.5 79.1,96.5 79.1,106.2 81.5,108.6 81.5,118.7 86.2,118.7 
						86.2,108.6 					"/>
					<polyline id="XMLID_164_" class="st4" points="76.8,106.2 76.8,96.5 67.3,96.5 67.3,106.2 69.7,108.6 69.7,118.7 74.4,118.7 
						74.4,108.6 					"/>
					<polyline id="XMLID_163_" class="st4" points="65,106.2 65,96.5 55.5,96.5 55.5,106.2 57.9,108.6 57.9,118.7 62.6,118.7 
						62.6,108.6 					"/>
					<polyline id="XMLID_162_" class="st4" points="53.2,106.2 53.2,96.5 43.7,96.5 43.7,106.2 46.1,108.6 46.1,118.7 50.8,118.7 
						50.8,108.6 					"/>
				</g>
			</g>
		</g>
	</g>
</g>
</svg>
