<?xml version="1.0" encoding="utf-8"?>
<svg version="1.1" id="logo" xmlns="http://www.w3.org/2000/svg" xmlns:xlink="http://www.w3.org/1999/xlink" x="0px" y="0px"
	 viewBox="-7.5 242.1 507.3 330.9" style="enable-background:new -7.5 242.1 507.3 330.9;" xml:space="preserve">
<style type="text/css">	
	.st1{
		fill:#04979C;
	}
	
	.st2{
		fill:#04979C;
		stroke:#04979C;
		stroke-width:16.6189;
	}
</style>
<g id="infinity">
	<path id="infinityPath" d="M116,263.2c-56.6,0-102.4,44.1-102.4,98.5s45.8,98.5,102.4,98.5c133.7,7,119.6-197,260.3-197
		c56.6,0,102.4,44.1,102.4,98.5s-45.8,98.5-102.4,98.5C242.7,467.3,256.8,263.2,116,263.2"/>
</g>
<g id="plus" transform="translate(0,10)">
	<g>
		<g>
			<polygon class="st1" points="382,383.1 358.1,383.1 358.1,360.1 335.2,360.1 335.2,336.4 358.1,336.4 358.1,313.5 382,313.5 
				382,336.4 404.8,336.4 404.8,360.1 382,360.1 			"/>
		</g>
	</g>
</g>
<g id="minus" transform="translate(-365.79452,0.52773446)">
	<g transform="scale(1.5645974,0.63914206)">
		<path class="st2" d="M291.4,565.9v-12.3h37.4v12.3H291.4z"/>
	</g>
</g>
<g id="arduino-text" class="st3">
	<g id="text20" transform="scale(1.0171639,0.98312568)">
		<path id="path3057" class="st1" d="M51.1,581.4l-4.5-16.1H18.2l-4.6,16.1H-1.6l24.1-81.5h21.4L68,581.4H51.1z M32.6,514.9
			l-10.7,37.9h21.3L32.6,514.9z"/>
		<path id="path3059" class="st1" d="M117.5,581.4l-11.4-26.2c-1.1-2.5-2.6-4.4-4.5-5.6c-1.9-1.3-4.2-1.9-6.8-1.9h-2.9v33.7H76.6
			v-81.5h23.6c4.5,0,8.6,0.4,12.2,1.2c3.7,0.8,6.8,2,9.3,3.8c2.6,1.8,4.6,4.1,6,7s2.1,6.4,2.1,10.5c0,3-0.4,5.7-1.3,8
			c-0.9,2.3-2.1,4.3-3.7,6c-1.6,1.7-3.5,3-5.6,4.1c-2.2,1-4.6,1.8-7.1,2.2c2,0.4,3.8,1.5,5.5,3.4c1.7,1.8,3.3,4.5,5,8l13,27.3H117.5
			z M113.7,523.9c0-4-1.3-6.9-3.8-8.6c-2.5-1.7-6.3-2.6-11.4-2.6h-6.7v23H98c2.4,0,4.5-0.2,6.5-0.7c1.9-0.5,3.6-1.2,5-2.2
			s2.4-2.2,3.2-3.7C113.4,527.5,113.7,525.8,113.7,523.9L113.7,523.9z"/>
		<path id="path3061" class="st1" d="M205.6,539.6c0,6.3-0.8,12-2.3,17.2c-1.6,5.2-4,9.5-7.3,13.2c-3.3,3.6-7.5,6.4-12.7,8.4
			s-11.3,3-18.5,3h-20.7v-81.5h24.1c6.2,0,11.7,0.8,16.4,2.3c4.7,1.6,8.6,4,11.7,7.2s5.5,7.4,7,12.3
			C204.8,526.8,205.6,532.7,205.6,539.6L205.6,539.6z M189.2,540.6c0-4.4-0.4-8.3-1.1-11.8c-0.7-3.4-1.9-6.4-3.6-8.8
			c-1.7-2.4-3.9-4.2-6.8-5.5c-2.8-1.2-6.3-1.9-10.5-1.9h-7.8v55.8h6.7c7.5,0,13.2-2.2,17.1-6.7C187.2,557.3,189.2,550.3,189.2,540.6
			L189.2,540.6z"/>
		<path id="path3063" class="st1" d="M273.8,551.4c0,5.2-0.7,9.8-2.1,13.7s-3.4,7.2-6,9.8s-5.8,4.6-9.5,5.9c-3.7,1.3-7.9,2-12.6,2
			c-5.2,0-9.7-0.7-13.5-2c-3.7-1.3-6.8-3.2-9.1-5.7c-2.3-2.5-4-5.5-5-9.1s-1.6-7.6-1.6-12v-54h15.3v53.1c0,2.7,0.2,5.2,0.7,7.3
			s1.3,3.9,2.5,5.4s2.7,2.6,4.5,3.3s4,1.1,6.7,1.1c2.5,0,4.7-0.3,6.4-1c1.7-0.6,3.2-1.7,4.4-3.1c1.2-1.4,2-3.3,2.6-5.5
			s0.9-5,0.9-8.2v-52.5h15.3v51.5H273.8z"/>
		<path id="path3065" class="st1" d="M288.7,512.5V500h51.5v12.5h-18v56.3h18v12.7h-51.5v-12.7h17.9v-56.3H288.7z"/>
		<path id="path3067" class="st1" d="M395.8,581.4L374,532.8l-4.5-10.5v33.8v25.3h-14v-81.5h18.8l22.2,48.9l3.9,9.5v-36v-22.5h14
			v81.5L395.8,581.4L395.8,581.4z"/>
		<path id="path3069" class="st1" d="M487.8,540.3c0,7.4-0.9,13.8-2.6,19.1c-1.7,5.4-4.1,9.8-7.1,13.2s-6.5,6-10.6,7.7
			s-8.4,2.5-13,2.5c-10.7,0-18.8-3.6-24.2-10.7c-5.4-7.1-8.1-17.5-8.1-31.1c0-7.4,0.9-13.8,2.6-19.1c1.7-5.4,4.1-9.8,7.1-13.2
			s6.5-6,10.6-7.7s8.4-2.5,13-2.5c10.7,0,18.8,3.6,24.2,10.7C485.1,516.3,487.8,526.7,487.8,540.3z M471.6,541.1
			c0-9.6-1.3-16.8-3.9-21.6c-2.6-4.7-6.8-7.1-12.7-7.1c-3,0-5.5,0.6-7.5,1.8c-2.1,1.2-3.8,3-5.1,5.4c-1.4,2.4-2.3,5.3-3,8.8
			c-0.6,3.5-0.9,7.4-0.9,11.9c0,9.6,1.3,16.8,3.9,21.6c2.6,4.7,6.8,7.1,12.7,7.1c2.9,0,5.5-0.6,7.6-1.8s3.8-3,5.1-5.4
			s2.3-5.3,2.9-8.8C471.3,549.5,471.6,545.6,471.6,541.1L471.6,541.1z"/>
	</g>
</g>
<g id="loading-text">
	<path class="st1" d="M40.5,558.1v-67.7h14.4v55.8h24.6v11.9H40.5z"/>
	<path class="st1" d="M148,524.1c0,5.2-0.6,10-1.8,14.3s-3.1,8-5.6,11c-2.5,3.1-5.7,5.4-9.5,7.1c-3.8,1.7-8.3,2.5-13.5,2.5
		s-9.7-0.8-13.5-2.5s-7-4-9.4-7.1c-2.5-3.1-4.3-6.7-5.6-11c-1.2-4.3-1.8-9.1-1.8-14.3s0.6-10,1.8-14.3c1.2-4.3,3.1-7.9,5.6-11
		c2.5-3,5.7-5.4,9.5-7c3.8-1.7,8.3-2.5,13.5-2.5s9.7,0.8,13.5,2.5s6.9,4,9.4,7s4.3,6.7,5.6,11C147.4,514.1,148,518.9,148,524.1z
		 M102.1,524.1c0,3.6,0.3,6.7,0.9,9.6c0.6,2.8,1.6,5.2,2.8,7.2c1.3,2,2.9,3.5,4.8,4.5c1.9,1.1,4.3,1.6,6.9,1.6
		c2.7,0,5.1-0.5,7.1-1.6c2-1,3.6-2.6,4.8-4.5c1.2-2,2.2-4.4,2.8-7.2s0.9-6,0.9-9.6c0-3.5-0.3-6.7-0.9-9.6c-0.6-2.8-1.5-5.2-2.8-7.2
		s-2.8-3.5-4.8-4.5c-1.9-1-4.3-1.6-7-1.6s-5,0.5-7,1.6s-3.6,2.6-4.9,4.5c-1.3,2-2.2,4.4-2.8,7.2
		C102.4,517.4,102.1,520.6,102.1,524.1z"/>
	<path class="st1" d="M199.7,558.1l-4.6-16.1h-23.3l-4.7,16.1h-14.5l22-68h17.5l22.1,68H199.7z M191.7,529.9l-4.4-14.8
		c-0.2-0.6-0.5-1.5-0.8-2.7c-0.4-1.3-0.8-2.7-1.2-4.2s-0.8-3.1-1.2-4.6s-0.6-2.9-0.8-3.9c-0.1,0.7-0.3,1.5-0.5,2.4s-0.4,1.9-0.7,2.9
		s-0.5,2.1-0.8,3.1s-0.5,2-0.8,3c-0.2,0.9-0.5,1.7-0.7,2.5c-0.2,0.7-0.3,1.2-0.4,1.6l-4.3,14.8L191.7,529.9L191.7,529.9z"/>
	<path class="st1" d="M275.1,523.6c0,5.7-0.8,10.7-2.3,15c-1.6,4.3-3.8,7.9-6.8,10.8c-2.9,2.9-6.6,5.1-10.8,6.5
		c-4.3,1.5-9.1,2.2-14.6,2.2h-17.8v-67.7h19.8c5,0,9.5,0.7,13.5,2.1c4,1.4,7.4,3.5,10.3,6.3c2.8,2.8,5,6.3,6.6,10.4
		C274.3,513.4,275.1,518.2,275.1,523.6z M260.5,524c0-3.8-0.4-7-1.1-9.7c-0.8-2.7-1.9-5-3.3-6.8c-1.4-1.8-3.2-3.1-5.3-4
		c-2.1-0.9-4.5-1.3-7.2-1.3H237v44.1h5.3c6,0,10.6-1.9,13.6-5.6C259,537,260.5,531.4,260.5,524z"/>
	<path class="st1" d="M313.5,558.1h-30.8V550l8.2-3.8v-43.8l-8.2-3.8v-8.1h30.8v8.1l-8.2,3.8v43.8l8.2,3.8V558.1z"/>
	<path class="st1" d="M382.3,558.1h-18.2l-26.6-51.2h-0.4c0.2,2.4,0.3,4.7,0.5,7.1c0.1,2,0.2,4.1,0.3,6.3c0.1,2.2,0.1,4.2,0.1,6
		v31.9h-12.8v-67.7h18l26.6,50.7h0.3c-0.1-2.3-0.2-4.7-0.3-6.9c0-1-0.1-2-0.1-3s-0.1-2.1-0.1-3.1s-0.1-2-0.1-3s0-1.8,0-2.6v-32h12.9
		L382.3,558.1L382.3,558.1z"/>
	<path class="st1" d="M425,520.1h26.9v35.1c-1.8,0.6-3.6,1.1-5.4,1.6s-3.7,0.9-5.7,1.2s-4,0.6-6.2,0.8c-2.1,0.2-4.4,0.3-6.8,0.3
		c-5.1,0-9.5-0.7-13.5-2.2c-3.9-1.5-7.2-3.7-9.9-6.7c-2.7-2.9-4.7-6.6-6.1-10.9c-1.4-4.3-2.1-9.3-2.1-15c0-5.3,0.8-10.1,2.3-14.4
		c1.5-4.3,3.8-7.9,6.8-11c3-3,6.7-5.3,11.1-6.9c4.4-1.6,9.4-2.4,15.1-2.4c3.6,0,7.1,0.4,10.6,1.2s6.6,1.8,9.5,3l-4.8,11.5
		c-2.1-1-4.5-1.9-7.1-2.6c-2.6-0.7-5.4-1.1-8.3-1.1c-3.1,0-6,0.5-8.5,1.6s-4.7,2.6-6.5,4.7c-1.8,2-3.2,4.4-4.1,7.3
		c-1,2.8-1.4,6-1.4,9.5c0,3.3,0.3,6.4,1,9.1c0.7,2.8,1.7,5.1,3.1,7.2s3.2,3.6,5.5,4.7c2.2,1.1,4.9,1.7,8,1.7c2,0,3.8-0.1,5.2-0.3
		c1.4-0.2,2.7-0.4,4-0.6v-14.1h-12.8L425,520.1L425,520.1z"/>
</g>
</svg>
