<?xml version="1.0" encoding="utf-8"?>
<svg version="1.1" id="mainGroup" xmlns="http://www.w3.org/2000/svg" xmlns:xlink="http://www.w3.org/1999/xlink" x="0px" y="0px" viewBox="0 0 600 300" style="enable-background:new 0 0 600 300;" xml:space="preserve">
<style type="text/css">	
	.infinityPath{
		fill:none;
		stroke:#04979C;
		stroke-width:42.2174;
		animation: animateStroke 2s linear infinite reverse;
	}
	
	@keyframes animateStroke
	{
		0% {
			stroke-dashoffset: 0;			/*0*/
			stroke-dasharray: 500;			/*500*/
		}
		100% {
			stroke-dashoffset: 1000;		/*1000*/
			stroke-dasharray: 500;			/*500*/
		}
	}
	
	.st1{
		fill:#04979C;
	}
	
	.st2{
		fill:#04979C;
		stroke:#04979C;
		stroke-width:16.6189;
	}
	
	#arduino-text {
		opacity: 0;
		fill: #04979C;
	}
	
	#loading-text {
		opacity: 100;
		fill: #04979C;
	}
</style>

	<g id="infinity">
		<path
			class="infinityPath"
			d="M175.8,297.4c-56.6,0-102.4,44.1-102.4,98.5s45.8,98.5,102.4,98.5c133.7,7,119.6-197,260.3-197 c56.6,0,102.4,44.1,102.4,98.5s-45.8,98.5-102.4,98.5C302.5,501.5,316.6,297.4,175.8,297.4"
		/>
	</g>

	<g id="plus" transform="translate(0,10)">
		<g>
			<g>
				<polygon
					class="st1"
					points="441.8,417.3 417.9,417.3 417.9,394.3 395,394.3 395,370.6 417.9,370.6 417.9,347.7 441.8,347.7 441.8,370.6 464.6,370.6 464.6,394.3 441.8,394.3"
				/>
			</g>
		</g>
	</g>

	<g
		id="minus"
		transform="translate(-365.79452,0.52773446)">
		<g
			transform="scale(1.5645974,0.63914206)"
			>
			<path
				class="st2"
				d="M329.6,619.4v-12.3H367v12.3H329.6z"
			/>
		</g>
	</g>
	<g id="arduino-text">
		<g id="text20" transform="scale(1.0171639,0.98312568)">
		<path id="path3057" class="st3" d="M109.9,616.2l-4.5-16.1H77l-4.6,16.1H57.2l24.1-81.5h21.4l24.1,81.5H109.9z M91.4,549.7
			l-10.7,37.9H102L91.4,549.7z"/>
		<path id="path3059" class="st3" d="M176.3,616.2L164.9,590c-1.1-2.5-2.6-4.4-4.5-5.6c-1.9-1.3-4.2-1.9-6.8-1.9h-2.9v33.7h-15.3
			v-81.5H159c4.5,0,8.6,0.4,12.2,1.2c3.7,0.8,6.8,2,9.3,3.8c2.6,1.8,4.6,4.1,6,7c1.4,2.9,2.1,6.4,2.1,10.5c0,3-0.4,5.7-1.3,8
			c-0.9,2.3-2.1,4.3-3.7,6c-1.6,1.7-3.5,3-5.6,4.1c-2.2,1-4.6,1.8-7.1,2.2c2,0.4,3.8,1.5,5.5,3.4c1.7,1.8,3.3,4.5,5,8l13,27.3H176.3
			z M172.5,558.7c0-4-1.3-6.9-3.8-8.6c-2.5-1.7-6.3-2.6-11.4-2.6h-6.7v23h6.2c2.4,0,4.5-0.2,6.5-0.7c1.9-0.5,3.6-1.2,5-2.2
			c1.4-1,2.4-2.2,3.2-3.7C172.2,562.3,172.5,560.6,172.5,558.7L172.5,558.7z"/>
		<path id="path3061" class="st3" d="M264.4,574.4c0,6.3-0.8,12-2.3,17.2c-1.6,5.2-4,9.5-7.3,13.2c-3.3,3.6-7.5,6.4-12.7,8.4
			c-5.2,2-11.3,3-18.5,3h-20.7v-81.5H227c6.2,0,11.7,0.8,16.4,2.3c4.7,1.6,8.6,4,11.7,7.2c3.1,3.2,5.5,7.4,7,12.3
			C263.6,561.6,264.4,567.5,264.4,574.4L264.4,574.4z M248,575.4c0-4.4-0.4-8.3-1.1-11.8c-0.7-3.4-1.9-6.4-3.6-8.8
			c-1.7-2.4-3.9-4.2-6.8-5.5c-2.8-1.2-6.3-1.9-10.5-1.9h-7.8v55.8h6.7c7.5,0,13.2-2.2,17.1-6.7C246,592.1,248,585.1,248,575.4
			L248,575.4z"/>
		<path id="path3063" class="st3" d="M332.6,586.2c0,5.2-0.7,9.8-2.1,13.7c-1.4,3.9-3.4,7.2-6,9.8c-2.6,2.6-5.8,4.6-9.5,5.9
			c-3.7,1.3-7.9,2-12.6,2c-5.2,0-9.7-0.7-13.5-2c-3.7-1.3-6.8-3.2-9.1-5.7c-2.3-2.5-4-5.5-5-9.1c-1-3.6-1.6-7.6-1.6-12v-54h15.3
			v53.1c0,2.7,0.2,5.2,0.7,7.3c0.5,2.1,1.3,3.9,2.5,5.4c1.2,1.5,2.7,2.6,4.5,3.3c1.8,0.7,4,1.1,6.7,1.1c2.5,0,4.7-0.3,6.4-1
			c1.7-0.6,3.2-1.7,4.4-3.1c1.2-1.4,2-3.3,2.6-5.5c0.6-2.2,0.9-5,0.9-8.2v-52.5h15.3V586.2z"/>
		<path id="path3065" class="st3" d="M347.5,547.3v-12.5H399v12.5H381v56.3H399v12.7h-51.5v-12.7h17.9v-56.3H347.5z"/>
		<path id="path3067" class="st3" d="M454.6,616.2l-21.8-48.6l-4.5-10.5v33.8v25.3h-14v-81.5h18.8l22.2,48.9l3.9,9.5v-36v-22.5h14
			v81.5H454.6z"/>
		<path id="path3069" class="st3" d="M546.6,575.1c0,7.4-0.9,13.8-2.6,19.1c-1.7,5.4-4.1,9.8-7.1,13.2c-3,3.4-6.5,6-10.6,7.7
			c-4.1,1.7-8.4,2.5-13,2.5c-10.7,0-18.8-3.6-24.2-10.7c-5.4-7.1-8.1-17.5-8.1-31.1c0-7.4,0.9-13.8,2.6-19.1
			c1.7-5.4,4.1-9.8,7.1-13.2c3-3.4,6.5-6,10.6-7.7c4.1-1.7,8.4-2.5,13-2.5c10.7,0,18.8,3.6,24.2,10.7
			C543.9,551.1,546.6,561.5,546.6,575.1z M530.4,575.9c0-9.6-1.3-16.8-3.9-21.6c-2.6-4.7-6.8-7.1-12.7-7.1c-3,0-5.5,0.6-7.5,1.8
			c-2.1,1.2-3.8,3-5.1,5.4c-1.4,2.4-2.3,5.3-3,8.8c-0.6,3.5-0.9,7.4-0.9,11.9c0,9.6,1.3,16.8,3.9,21.6c2.6,4.7,6.8,7.1,12.7,7.1
			c2.9,0,5.5-0.6,7.6-1.8c2.1-1.2,3.8-3,5.1-5.4c1.3-2.4,2.3-5.3,2.9-8.8C530.1,584.3,530.4,580.4,530.4,575.9L530.4,575.9z"/>
		</g>
	</g>
	<g id="loading-text">
		<path class="st1" d="M100.3,592.3v-67.7h14.4v55.8h24.6v11.9H100.3z"/>
		<path class="st1" d="M207.8,558.3c0,5.2-0.6,10-1.8,14.3c-1.2,4.3-3.1,8-5.6,11c-2.5,3.1-5.7,5.4-9.5,7.1
			c-3.8,1.7-8.3,2.5-13.5,2.5s-9.7-0.8-13.5-2.5c-3.8-1.7-7-4-9.4-7.1c-2.5-3.1-4.3-6.7-5.6-11c-1.2-4.3-1.8-9.1-1.8-14.3
			s0.6-10,1.8-14.3c1.2-4.3,3.1-7.9,5.6-11c2.5-3,5.7-5.4,9.5-7c3.8-1.7,8.3-2.5,13.5-2.5c5.2,0,9.7,0.8,13.5,2.5
			c3.8,1.7,6.9,4,9.4,7c2.5,3,4.3,6.7,5.6,11C207.2,548.3,207.8,553.1,207.8,558.3z M161.9,558.3c0,3.6,0.3,6.7,0.9,9.6
			c0.6,2.8,1.6,5.2,2.8,7.2c1.3,2,2.9,3.5,4.8,4.5c1.9,1.1,4.3,1.6,6.9,1.6c2.7,0,5.1-0.5,7.1-1.6c2-1,3.6-2.6,4.8-4.5
			c1.2-2,2.2-4.4,2.8-7.2c0.6-2.8,0.9-6,0.9-9.6c0-3.5-0.3-6.7-0.9-9.6c-0.6-2.8-1.5-5.2-2.8-7.2c-1.3-2-2.8-3.5-4.8-4.5
			c-1.9-1-4.3-1.6-7-1.6c-2.7,0-5,0.5-7,1.6c-2,1.1-3.6,2.6-4.9,4.5c-1.3,2-2.2,4.4-2.8,7.2C162.2,551.6,161.9,554.8,161.9,558.3z"/>
		<path class="st1" d="M259.5,592.3l-4.6-16.1h-23.3l-4.7,16.1h-14.5l22-68h17.5l22.1,68H259.5z M251.5,564.1l-4.4-14.8
			c-0.2-0.6-0.5-1.5-0.8-2.7c-0.4-1.3-0.8-2.7-1.2-4.2c-0.4-1.5-0.8-3.1-1.2-4.6c-0.4-1.5-0.6-2.9-0.8-3.9c-0.1,0.7-0.3,1.5-0.5,2.4
			c-0.2,0.9-0.4,1.9-0.7,2.9c-0.3,1-0.5,2.1-0.8,3.1c-0.3,1-0.5,2-0.8,3c-0.2,0.9-0.5,1.7-0.7,2.5c-0.2,0.7-0.3,1.2-0.4,1.6
			l-4.3,14.8H251.5z"/>
		<path class="st1" d="M334.9,557.8c0,5.7-0.8,10.7-2.3,15c-1.6,4.3-3.8,7.9-6.8,10.8c-2.9,2.9-6.6,5.1-10.8,6.5
			c-4.3,1.5-9.1,2.2-14.6,2.2h-17.8v-67.7h19.8c5,0,9.5,0.7,13.5,2.1c4,1.4,7.4,3.5,10.3,6.3c2.8,2.8,5,6.3,6.6,10.4
			C334.1,547.6,334.9,552.4,334.9,557.8z M320.3,558.2c0-3.8-0.4-7-1.1-9.7c-0.8-2.7-1.9-5-3.3-6.8c-1.4-1.8-3.2-3.1-5.3-4
			c-2.1-0.9-4.5-1.3-7.2-1.3h-6.6v44.1h5.3c6,0,10.6-1.9,13.6-5.6C318.8,571.2,320.3,565.6,320.3,558.2z"/>
		<path class="st1" d="M373.3,592.3h-30.8v-8.1l8.2-3.8v-43.8l-8.2-3.8v-8.1h30.8v8.1l-8.2,3.8v43.8l8.2,3.8V592.3z"/>
		<path class="st1" d="M442.1,592.3h-18.2l-26.6-51.2h-0.4c0.2,2.4,0.3,4.7,0.5,7.1c0.1,2,0.2,4.1,0.3,6.3c0.1,2.2,0.1,4.2,0.1,6
			v31.9h-12.8v-67.7H403l26.6,50.7h0.3c-0.1-2.3-0.2-4.7-0.3-6.9c0-1-0.1-2-0.1-3c0-1-0.1-2.1-0.1-3.1c0-1-0.1-2-0.1-3
			c0-1,0-1.8,0-2.6v-32h12.9V592.3z"/>
		<path class="st1" d="M484.8,554.3h26.9v35.1c-1.8,0.6-3.6,1.1-5.4,1.6c-1.8,0.5-3.7,0.9-5.7,1.2c-2,0.3-4,0.6-6.2,0.8
			c-2.1,0.2-4.4,0.3-6.8,0.3c-5.1,0-9.5-0.7-13.5-2.2c-3.9-1.5-7.2-3.7-9.9-6.7c-2.7-2.9-4.7-6.6-6.1-10.9c-1.4-4.3-2.1-9.3-2.1-15
			c0-5.3,0.8-10.1,2.3-14.4c1.5-4.3,3.8-7.9,6.8-11c3-3,6.7-5.3,11.1-6.9c4.4-1.6,9.4-2.4,15.1-2.4c3.6,0,7.1,0.4,10.6,1.2
			c3.5,0.8,6.6,1.8,9.5,3l-4.8,11.5c-2.1-1-4.5-1.9-7.1-2.6c-2.6-0.7-5.4-1.1-8.3-1.1c-3.1,0-6,0.5-8.5,1.6c-2.5,1.1-4.7,2.6-6.5,4.7
			c-1.8,2-3.2,4.4-4.1,7.3c-1,2.8-1.4,6-1.4,9.5c0,3.3,0.3,6.4,1,9.1c0.7,2.8,1.7,5.1,3.1,7.2s3.2,3.6,5.5,4.7c2.2,1.1,4.9,1.7,8,1.7
			c2,0,3.8-0.1,5.2-0.3c1.4-0.2,2.7-0.4,4-0.6v-14.1h-12.8V554.3z"/>
	</g>
</svg>
